<?xml version="1.0" standalone="no"?><!DOCTYPE svg PUBLIC "-//W3C//DTD SVG 1.1//EN" "http://www.w3.org/Graphics/SVG/1.1/DTD/svg11.dtd"><svg t="1489634040948" class="icon" style="" viewBox="0 0 1024 1024" version="1.1" xmlns="http://www.w3.org/2000/svg" p-id="3394" xmlns:xlink="http://www.w3.org/1999/xlink" width="32" height="32"><defs><style type="text/css"></style></defs><path d="M738.8 152h-500c-60.7 0-110 49.3-110 110v320c0 53.8 38.8 98.8 90 108.2V852c0 8.1 4.8 15.4 12.3 18.5 2.5 1 5.1 1.5 7.7 1.5 5.1 0 10.3-2 14.1-5.9L427.1 692h311.7c60.6 0 110-49.3 110-110V262c0.1-60.7-49.3-110-110-110z m-89.9 320h-320c-22.1 0-40-17.9-40-40 0-22 17.9-40 40-40h320c22.1 0 40 18 40 40 0 22.1-18 40-40 40z" fill="#bfbfbf" p-id="3395"></path></svg>